<?xml version="1.0" encoding="UTF-8" standalone="no"?>
<!-- Created with Inkscape (http://www.inkscape.org/) -->

<svg
   version="1.1"
   id="svg32"
   width="1080"
   height="1245"
   viewBox="0 0 1080 1245"
   sodipodi:docname="designitlogo12.svg"
   inkscape:version="1.2.1 (9c6d41e4, 2022-07-14)"
   xml:space="preserve"
   inkscape:export-filename="designitlogo12.png"
   inkscape:export-xdpi="48"
   inkscape:export-ydpi="48"
   xmlns:inkscape="http://www.inkscape.org/namespaces/inkscape"
   xmlns:sodipodi="http://sodipodi.sourceforge.net/DTD/sodipodi-0.dtd"
   xmlns="http://www.w3.org/2000/svg"
   xmlns:svg="http://www.w3.org/2000/svg"><defs
     id="defs36"><inkscape:path-effect
       effect="roughen"
       id="path-effect30105"
       is_visible="true"
       lpeversion="1.2"
       method="size"
       max_segment_size="5.1"
       segments="2"
       displace_x="10;1"
       displace_y="10;1"
       global_randomize="1;1"
       handles="along"
       shift_nodes="true"
       fixed_displacement="false"
       spray_tool_friendly="false" /><inkscape:path-effect
       effect="roughen"
       id="path-effect8859"
       is_visible="true"
       lpeversion="1.2"
       method="size"
       max_segment_size="4.32967"
       segments="2"
       displace_x="4.74163;1"
       displace_y="1.44322;1"
       global_randomize="1;1"
       handles="along"
       shift_nodes="true"
       fixed_displacement="false"
       spray_tool_friendly="false" /><rect
       x="234.92062"
       y="834.92065"
       width="382.53967"
       height="96.825394"
       id="rect6134" /><inkscape:path-effect
       effect="fillet_chamfer"
       id="path-effect6483"
       is_visible="true"
       lpeversion="1"
       nodesatellites_param="F,0,0,1,0,7,0,1 @ F,0,0,1,0,7,0,1 @ F,0,0,1,0,7,0,1 @ F,0,0,1,0,7,0,1 @ F,0,0,1,0,7,0,1 @ F,0,0,1,0,7,0,1 @ F,0,0,1,0,7,0,1 @ F,0,0,1,0,7,0,1 @ F,0,0,1,0,7,0,1 @ F,0,0,1,0,7,0,1 @ F,0,0,1,0,7,0,1 @ F,0,0,1,0,7,0,1 @ F,0,0,1,0,7,0,1 @ F,0,0,1,0,7,0,1 @ F,0,0,1,0,7,0,1 @ F,0,0,1,0,7,0,1 @ F,0,0,1,0,7,0,1 @ F,0,0,1,0,7,0,1 @ F,0,0,1,0,7,0,1 @ F,0,0,1,0,7,0,1 @ F,0,0,1,0,7,0,1 @ F,0,0,1,0,7,0,1 @ F,0,0,1,0,7,0,1 @ F,0,0,1,0,7,0,1"
       unit="px"
       method="auto"
       mode="F"
       radius="7"
       chamfer_steps="1"
       flexible="false"
       use_knot_distance="true"
       apply_no_radius="true"
       apply_with_radius="true"
       only_selected="false"
       hide_knots="false" /><inkscape:path-effect
       effect="roughen"
       id="path-effect897"
       is_visible="true"
       lpeversion="1.2"
       method="size"
       max_segment_size="4.32967"
       segments="2"
       displace_x="10;1"
       displace_y="10;1"
       global_randomize="1;1"
       handles="along"
       shift_nodes="true"
       fixed_displacement="false"
       spray_tool_friendly="false" /></defs><sodipodi:namedview
     id="namedview34"
     pagecolor="#ffffff"
     bordercolor="#000000"
     borderopacity="0.25"
     inkscape:showpageshadow="2"
     inkscape:pageopacity="1"
     inkscape:pagecheckerboard="0"
     inkscape:deskcolor="#d1d1d1"
     showgrid="false"
     inkscape:zoom="0.51"
     inkscape:cx="184.31373"
     inkscape:cy="554.90196"
     inkscape:window-width="1390"
     inkscape:window-height="892"
     inkscape:window-x="0"
     inkscape:window-y="25"
     inkscape:window-maximized="0"
     inkscape:current-layer="g38"
     showguides="true"><inkscape:grid
       type="xygrid"
       id="grid4763"
       originx="40.950393"
       originy="49.724033" /><sodipodi:guide
       position="834.24234,-324.14003"
       orientation="0,-1"
       id="guide8748"
       inkscape:locked="false" /></sodipodi:namedview><g
     inkscape:groupmode="layer"
     inkscape:label="Image"
     id="g38"
     transform="translate(40.950365,49.724046)"><path
       sodipodi:type="star"
       style="fill:#ffffff;fill-opacity:1;stroke:#454545;stroke-width:34.9413;stroke-dasharray:none;stroke-opacity:1;stop-color:#000000"
       id="path3174"
       inkscape:flatsided="true"
       sodipodi:sides="6"
       sodipodi:cx="217.46033"
       sodipodi:cy="139.68254"
       sodipodi:r1="441.86325"
       sodipodi:r2="382.66479"
       sodipodi:arg1="0.52359878"
       sodipodi:arg2="1.0471976"
       inkscape:rounded="0"
       inkscape:randomized="0"
       d="m 600.12513,360.61417 -382.6648,220.93162 -382.6648,-220.93163 0,-441.863246 382.6648,-220.931624 382.6648,220.931627 z"
       transform="matrix(1.3393896,0,0,1.3393896,207.78554,385.68661)" /><path
       style="display:none;fill:#454545;fill-opacity:0.552941;stroke-width:5.66929;stop-color:#000000"
       d="m 275.91227,530.22325 454.38471,0.53418 113.31124,215.44683 -711.24394,-0.48298 z"
       id="rect3748" /><path
       id="rect6130"
       style="fill:#808080;fill-opacity:1;stroke:none;stroke-width:15.1181;stroke-dasharray:none;stroke-opacity:1"
       d="m 554.04867,178.22672 v 4.51563 a 7,7 45 0 0 7,7 h 0.22461 a 7,7 45 0 1 7,7 v 39.60742 a 7,7 135 0 1 -7,7 h -67.9414 a 7,7 135 0 0 -7,7 l 0,10.92773 a 7,7 45 0 0 7,7 h 42.51562 a 7,7 45 0 1 7,7 v 112.61328 a 7,7 45 0 0 7,7 5.6919911,5.6919911 60.412028 0 1 3.97461,7 v 65.79297 a 7,7 45 0 0 7,7 5.4479515,5.4479515 65.306015 0 1 3.21875,7 v 28.58985 a 7,7 45 0 0 7,7 h 7.4668 a 7,7 135 0 0 7,-7 v -28.58985 a 7,7 135 0 1 7,-7 5.7848893,5.7848893 121.17016 0 0 4.23437,-7 v -65.79297 a 7,7 135 0 1 7,-7 6.8217278,6.8217278 133.48241 0 0 6.63867,-7 l 0,-112.61328 a 7,7 135 0 1 7,-7 h 1.00391 a 7,7 135 0 0 7,-7 v -10.92773 a 7,7 45 0 0 -7,-7 h -23.53516 a 7,7 45 0 1 -7,-7 v -39.60742 a 7,7 135 0 1 7,-7 h 0.90625 a 7,7 135 0 0 7,-7 v -4.51563 a 7,7 45 0 0 -7,-7 h -34.70703 a 7,7 135 0 0 -7,7 z"
       inkscape:original-d="m 554.04867,171.22672 v 18.51563 h 14.22461 v 53.60742 h -81.9414 v 24.92773 h 56.51562 v 126.61328 h 10.97461 v 79.79297 h 10.21875 v 42.58985 h 21.4668 v -42.58985 h 11.23437 V 394.89078 H 610.3807 V 268.2775 h 15.00391 v -24.92773 h -37.53516 v -53.60742 h 14.90625 v -18.51563 z"
       inkscape:path-effect="#path-effect6483" /><text
       xml:space="preserve"
       style="font-style:normal;font-variant:normal;font-weight:normal;font-stretch:normal;font-size:133.333px;font-family:'Roche Sans';-inkscape-font-specification:'Roche Sans';fill:#454545;fill-opacity:1;stroke:none;stroke-width:15.1181;stroke-dasharray:none;stroke-opacity:1;stop-color:#000000"
       x="499.04965"
       y="876.74432"
       id="text6140"><tspan
         sodipodi:role="line"
         id="tspan6138"
         x="499.04965"
         y="876.74432"
         style="font-style:normal;font-variant:normal;font-weight:600;font-stretch:normal;font-family:Rubik;-inkscape-font-specification:'Rubik Semi-Bold';text-align:center;text-anchor:middle;fill:#454545;fill-opacity:1;stroke-width:15.1181;stroke-dasharray:none">designit</tspan></text><path
       style="fill:#8ca95b;fill-opacity:1;stroke:none;stroke-width:10.1852;stroke-dasharray:none;stop-color:#000000"
       d="m 324.07226,682.63816 -145.848,-0.121 -44.184,66.329 164.107,0.112 z"
       id="path8968" /><path
       style="fill:#099aa6;fill-opacity:1;stroke:none;stroke-width:10.1852;stroke-dasharray:none;stop-color:#000000"
       d="m 347.99526,621.43816 -129.002,-0.125 -34.077,51.158 143.083,0.122 z"
       id="path8966" /><path
       style="fill:#94013b;fill-opacity:1;stroke:none;stroke-width:10.1852;stroke-dasharray:none;stop-color:#000000"
       d="m 366.96826,572.90316 -115.645,-0.125 -27.082,40.656 126.834,0.126 z"
       id="path8964" /><path
       style="fill:#af8362;fill-opacity:1;stroke:none;stroke-width:10.1852;stroke-dasharray:none;stop-color:#000000"
       d="m 382.38226,533.47116 -104.794,-0.123 -22.04,33.087 113.899,0.126 z"
       id="path8962" /><path
       style="fill:#94013b;fill-opacity:1;stroke:none;stroke-width:10.1852;stroke-dasharray:none;stop-color:#000000"
       d="m 486.30726,682.77316 -145.735,-0.121 -23.86,66.318 163.965,0.112 z"
       id="path8960" /><path
       style="fill:#af8362;fill-opacity:1;stroke:none;stroke-width:10.1852;stroke-dasharray:none;stop-color:#000000"
       d="m 491.50426,621.57816 -128.914,-0.126 -18.404,51.155 142.974,0.122 z"
       id="path8958" /><path
       style="fill:#8ca95b;fill-opacity:1;stroke:none;stroke-width:10.1852;stroke-dasharray:none;stop-color:#000000"
       d="m 495.62526,573.04316 -115.573,-0.126 -14.628,40.657 126.749,0.126 z"
       id="path8956" /><path
       style="fill:#099aa6;fill-opacity:1;stroke:none;stroke-width:10.1852;stroke-dasharray:none;stop-color:#000000"
       d="m 498.97326,533.60916 -104.735,-0.124 -11.904,33.09 113.829,0.125 z"
       id="path8954" /><path
       style="fill:#af8362;fill-opacity:1;stroke:none;stroke-width:10.1852;stroke-dasharray:none;stop-color:#000000"
       d="m 648.42526,682.90816 -145.627,-0.121 -3.568,66.307 163.827,0.112 z"
       id="path8952" /><path
       style="fill:#ffffff;fill-opacity:0;stroke:none;stroke-width:10.1852;stroke-dasharray:none;stop-color:#000000"
       d="m 634.92026,621.71716 -128.828,-0.125 -2.753,51.151 142.87,0.122 z"
       id="path8950" /><path
       style="fill:#099aa6;fill-opacity:1;stroke:none;stroke-width:10.1852;stroke-dasharray:none;stop-color:#000000"
       d="m 624.20826,573.18216 -115.504,-0.125 -2.188,40.657 126.666,0.126 z"
       id="path8948" /><path
       style="fill:#8ca95b;fill-opacity:1;stroke:none;stroke-width:10.1852;stroke-dasharray:none;stop-color:#000000"
       d="m 615.50426,533.74516 -104.678,-0.123 -1.781,33.092 113.763,0.125 z"
       id="path8946" /><path
       style="fill:#099aa6;fill-opacity:1;stroke:none;stroke-width:10.1852;stroke-dasharray:none;stop-color:#000000"
       d="m 810.42226,683.04316 -145.522,-0.121 16.691,66.296 163.693,0.111 z"
       id="path8944" /><path
       style="fill:#8ca95b;fill-opacity:1;stroke:none;stroke-width:10.1852;stroke-dasharray:none;stop-color:#000000"
       d="m 778.24226,621.85716 -128.747,-0.126 12.877,51.148 142.769,0.122 z"
       id="path8942" /><path
       style="fill:#af8362;fill-opacity:1;stroke:none;stroke-width:10.1852;stroke-dasharray:none;stop-color:#000000"
       d="m 752.71626,573.32216 -115.44,-0.126 10.236,40.658 126.587,0.125 z"
       id="path8940" /><path
       style="fill:#94013b;fill-opacity:1;stroke:none;stroke-width:10.1852;stroke-dasharray:none;stop-color:#000000"
       d="m 731.97326,533.88216 -104.625,-0.123 8.332,33.094 113.699,0.125 z"
       id="rect3391" /><path
       id="path1019"
       style="fill:#94013b;fill-opacity:1;stroke:#ffffff;stroke-width:5.66929;stroke-dasharray:none;stroke-opacity:1"
       d="m 564.67292,544.41697 c 0,0 -7.70005,12.53928 -12.6741,23.06989 -4.97405,10.53061 -15.7101,24.38114 -12.6741,37.60787 2.53373,11.03852 14.02262,22.58051 25.3482,22.56957 11.30102,-0.0109 22.87483,-11.54253 25.34819,-22.56957 2.98012,-13.28632 -7.92793,-26.98827 -12.6741,-37.60787 -4.74616,-10.6196 -12.67409,-23.06989 -12.67409,-23.06989 z"
       sodipodi:nodetypes="czaaasc"
       class="UnoptimicedTransforms"
       transform="translate(10.101338,3.1251614)" /></g></svg>
