<?xml version="1.0" encoding="UTF-8" standalone="no"?>
<!-- Created with Inkscape (http://www.inkscape.org/) -->

<svg
   version="1.1"
   id="svg32"
   width="240"
   height="280"
   viewBox="0 0 240 280"
   sodipodi:docname="designitlogo13.svg"
   inkscape:version="1.2.1 (9c6d41e4, 2022-07-14)"
   xml:space="preserve"
   inkscape:export-filename="designitlogo13.png"
   inkscape:export-xdpi="96"
   inkscape:export-ydpi="96"
   xmlns:inkscape="http://www.inkscape.org/namespaces/inkscape"
   xmlns:sodipodi="http://sodipodi.sourceforge.net/DTD/sodipodi-0.dtd"
   xmlns="http://www.w3.org/2000/svg"
   xmlns:svg="http://www.w3.org/2000/svg"><defs
     id="defs36"><inkscape:path-effect
       effect="roughen"
       id="path-effect30105"
       is_visible="true"
       lpeversion="1.2"
       method="size"
       max_segment_size="5.1"
       segments="2"
       displace_x="10;1"
       displace_y="10;1"
       global_randomize="1;1"
       handles="along"
       shift_nodes="true"
       fixed_displacement="false"
       spray_tool_friendly="false" /><inkscape:path-effect
       effect="roughen"
       id="path-effect8859"
       is_visible="true"
       lpeversion="1.2"
       method="size"
       max_segment_size="4.32967"
       segments="2"
       displace_x="4.74163;1"
       displace_y="1.44322;1"
       global_randomize="1;1"
       handles="along"
       shift_nodes="true"
       fixed_displacement="false"
       spray_tool_friendly="false" /><rect
       x="234.92062"
       y="834.92065"
       width="382.53967"
       height="96.825394"
       id="rect6134" /><inkscape:path-effect
       effect="fillet_chamfer"
       id="path-effect6483"
       is_visible="true"
       lpeversion="1"
       nodesatellites_param="F,0,0,1,0,1,0,1 @ F,0,0,1,0,1,0,1 @ F,0,0,1,0,1,0,1 @ F,0,0,1,0,1,0,1 @ F,0,0,1,0,1,0,1 @ F,0,0,1,0,1,0,1 @ F,0,0,1,0,1,0,1 @ F,0,0,1,0,1,0,1 @ F,0,0,1,0,1,0,1 @ F,0,0,1,0,1,0,1 @ F,0,0,1,0,1,0,1 @ F,0,0,1,0,1,0,1 @ F,0,0,1,0,1,0,1 @ F,0,0,1,0,1,0,1 @ F,0,0,1,0,1,0,1 @ F,0,0,1,0,1,0,1 @ F,0,0,1,0,1,0,1 @ F,0,0,1,0,1,0,1 @ F,0,0,1,0,1,0,1 @ F,0,0,1,0,1,0,1 @ F,0,0,1,0,1,0,1 @ F,0,0,1,0,1,0,1 @ F,0,0,1,0,1,0,1 @ F,0,0,1,0,1,0,1"
       unit="px"
       method="auto"
       mode="F"
       radius="1"
       chamfer_steps="1"
       flexible="false"
       use_knot_distance="true"
       apply_no_radius="true"
       apply_with_radius="true"
       only_selected="false"
       hide_knots="false" /><inkscape:path-effect
       effect="roughen"
       id="path-effect897"
       is_visible="true"
       lpeversion="1.2"
       method="size"
       max_segment_size="4.32967"
       segments="2"
       displace_x="10;1"
       displace_y="10;1"
       global_randomize="1;1"
       handles="along"
       shift_nodes="true"
       fixed_displacement="false"
       spray_tool_friendly="false" /></defs><sodipodi:namedview
     id="namedview34"
     pagecolor="#ffffff"
     bordercolor="#000000"
     borderopacity="0.25"
     inkscape:showpageshadow="2"
     inkscape:pageopacity="0"
     inkscape:pagecheckerboard="true"
     inkscape:deskcolor="#d1d1d1"
     showgrid="false"
     inkscape:zoom="2.2"
     inkscape:cx="181.59091"
     inkscape:cy="163.18182"
     inkscape:window-width="1680"
     inkscape:window-height="892"
     inkscape:window-x="1680"
     inkscape:window-y="25"
     inkscape:window-maximized="0"
     inkscape:current-layer="svg32"
     showguides="true"><inkscape:grid
       type="xygrid"
       id="grid4763"
       originx="40.950393"
       originy="49.724033" /><sodipodi:guide
       position="834.24233,-320.80668"
       orientation="0,-1"
       id="guide8748"
       inkscape:locked="false" /></sodipodi:namedview><g
     inkscape:groupmode="layer"
     inkscape:label="Image"
     id="g38"
     transform="translate(40.950365,49.724046)"><path
       style="display:none;fill:#454545;fill-opacity:0.552941;stroke-width:5.66929;stop-color:#000000"
       d="m 275.91227,530.22325 454.38471,0.53418 113.31124,215.44683 -711.24394,-0.48298 z"
       id="rect3748" /><path
       sodipodi:type="star"
       style="fill:#ffffff;fill-opacity:1;stroke:#454545;stroke-width:34.9413;stroke-dasharray:none;stroke-opacity:1;stop-color:#000000"
       id="path3174"
       inkscape:flatsided="true"
       sodipodi:sides="6"
       sodipodi:cx="217.46033"
       sodipodi:cy="139.68254"
       sodipodi:r1="441.86325"
       sodipodi:r2="382.66479"
       sodipodi:arg1="0.52359878"
       sodipodi:arg2="1.0471976"
       inkscape:rounded="0"
       inkscape:randomized="0"
       d="m 600.12513,360.61417 -382.6648,220.93162 -382.6648,-220.93163 0,-441.863246 382.6648,-220.931624 382.6648,220.931627 z"
       transform="matrix(0.2973993,0,0,0.2973993,14.377086,49.796787)" /><path
       id="rect6130"
       style="fill:#808080;fill-opacity:1;stroke:none;stroke-width:3.35684;stroke-dasharray:none;stroke-opacity:1"
       d="M 91.26167,3.1779154 V 5.289143 a 1,1 45 0 0 1,1 h 1.158446 a 1,1 45 0 1 1,1 v 9.903041 a 1,1 135 0 1 -1,1 H 77.225772 a 1,1 135 0 0 -1,1 v 3.534976 a 1,1 45 0 0 1,1 l 10.54878,0 a 1,1 45 0 1 1,1 v 26.113329 a 1,1 45 0 0 1,1 h 0.436813 a 1,1 45 0 1 1,1 v 15.717305 a 1,1 45 0 0 1,1 h 0.26898 a 1,1 45 0 1 1,1 v 7.456689 a 1,1 45 0 0 1,1 h 2.766508 a 1,1 135 0 0 1,-1 v -7.456689 a 1,1 135 0 1 1,-1 h 0.494487 a 1,1 135 0 0 1,-1 V 52.840489 a 1,1 135 0 1 1,-1 h 1.02835 a 1,1 135 0 0 1,-1 V 24.72716 a 1,1 135 0 1 1,-1 l 1.33148,0 a 1,1 135 0 0 1,-1 l 0,-3.534976 a 1,1 45 0 0 -1,-1 h -6.334343 a 1,1 45 0 1 -1,-1 V 7.289143 a 1,1 135 0 1 1,-1 h 1.309793 a 1,1 135 0 0 1,-1 V 3.1779154 a 1,1 45 0 0 -1,-1 h -8.81495 a 1,1 135 0 0 -1,1 z"
       inkscape:original-d="M 91.26167,2.1779154 V 6.289143 h 3.158446 V 18.192184 H 76.225772 v 5.534976 h 12.54878 v 28.113329 h 2.436813 v 17.717305 h 2.26898 v 9.456689 h 4.766508 v -9.456689 h 2.494487 V 51.840489 h 3.02835 V 23.72716 h 3.33148 V 18.192184 H 98.766827 V 6.289143 h 3.309793 V 2.1779154 Z"
       inkscape:path-effect="#path-effect6483" /><text
       xml:space="preserve"
       style="font-style:normal;font-variant:normal;font-weight:normal;font-stretch:normal;font-size:29.6054px;font-family:'Roche Sans';-inkscape-font-specification:'Roche Sans';fill:#454545;fill-opacity:1;stroke:none;stroke-width:3.35684;stroke-dasharray:none;stroke-opacity:1;stop-color:#000000"
       x="79.049637"
       y="158.8317"
       id="text6140"><tspan
         sodipodi:role="line"
         id="tspan6138"
         x="79.049637"
         y="158.8317"
         style="font-style:normal;font-variant:normal;font-weight:600;font-stretch:normal;font-family:Rubik;-inkscape-font-specification:'Rubik Semi-Bold';text-align:center;text-anchor:middle;fill:#454545;fill-opacity:1;stroke-width:3.35684;stroke-dasharray:none">designit</tspan></text><path
       style="fill:#8ca95b;fill-opacity:1;stroke:none;stroke-width:2.26153;stroke-dasharray:none;stop-color:#000000"
       d="m 40.197497,115.73218 -32.3842243,-0.0269 -9.8106561,14.72775 36.4384694,0.0249 z"
       id="path8968" /><path
       style="fill:#099aa6;fill-opacity:1;stroke:none;stroke-width:2.26153;stroke-dasharray:none;stop-color:#000000"
       d="m 45.509382,102.14328 -28.643723,-0.0278 -7.5664885,11.35917 31.7702805,0.0271 z"
       id="path8966" /><path
       style="fill:#94013b;fill-opacity:1;stroke:none;stroke-width:2.26153;stroke-dasharray:none;stop-color:#000000"
       d="m 49.722164,91.366522 -25.677922,-0.02775 -6.013312,9.027298 28.162338,0.028 z"
       id="path8964" /><path
       style="fill:#af8362;fill-opacity:1;stroke:none;stroke-width:2.26153;stroke-dasharray:none;stop-color:#000000"
       d="m 53.144703,82.611004 -23.268556,-0.02731 -4.893782,7.346668 25.290239,0.02798 z"
       id="path8962" /><path
       style="fill:#94013b;fill-opacity:1;stroke:none;stroke-width:2.26153;stroke-dasharray:none;stop-color:#000000"
       d="m 76.220305,115.76216 -32.359133,-0.0269 -5.297896,14.72531 36.406939,0.0249 z"
       id="path8960" /><path
       style="fill:#af8362;fill-opacity:1;stroke:none;stroke-width:2.26153;stroke-dasharray:none;stop-color:#000000"
       d="m 77.374252,102.17436 -28.624183,-0.028 -4.086441,11.3585 31.746078,0.0271 z"
       id="path8958" /><path
       style="fill:#8ca95b;fill-opacity:1;stroke:none;stroke-width:2.26153;stroke-dasharray:none;stop-color:#000000"
       d="m 78.289283,91.397607 -25.661936,-0.02798 -3.248014,9.027523 28.143464,0.028 z"
       id="path8956" /><path
       style="fill:#099aa6;fill-opacity:1;stroke:none;stroke-width:2.26153;stroke-dasharray:none;stop-color:#000000"
       d="M 79.032676,82.641646 55.77722,82.614116 53.134045,89.96145 78.408741,89.9892 Z"
       id="path8954" /><path
       style="fill:#af8362;fill-opacity:1;stroke:none;stroke-width:2.26153;stroke-dasharray:none;stop-color:#000000"
       d="m 112.21714,115.79213 -32.335158,-0.0269 -0.792242,14.72286 36.3763,0.0249 z"
       id="path8952" /><path
       style="fill:#ffffff;fill-opacity:0;stroke:none;stroke-width:2.26153;stroke-dasharray:none;stop-color:#000000"
       d="m 109.21847,102.20523 -28.605085,-0.0278 -0.611279,11.35762 31.722984,0.0271 z"
       id="path8950" /><path
       style="fill:#099aa6;fill-opacity:1;stroke:none;stroke-width:2.26153;stroke-dasharray:none;stop-color:#000000"
       d="m 106.83997,91.428471 -25.646614,-0.02775 -0.485826,9.027519 28.12504,0.028 z"
       id="path8948" /><path
       style="fill:#8ca95b;fill-opacity:1;stroke:none;stroke-width:2.26153;stroke-dasharray:none;stop-color:#000000"
       d="m 104.90733,82.671843 -23.242803,-0.02731 -0.395455,7.347778 25.260038,0.02776 z"
       id="path8946" /><path
       style="fill:#099aa6;fill-opacity:1;stroke:none;stroke-width:2.26153;stroke-dasharray:none;stop-color:#000000"
       d="m 148.1871,115.82211 -32.31184,-0.0269 3.70608,14.72043 36.34655,0.0246 z"
       id="path8944" /><path
       style="fill:#8ca95b;fill-opacity:1;stroke:none;stroke-width:2.26153;stroke-dasharray:none;stop-color:#000000"
       d="m 141.04182,102.23631 -28.5871,-0.028 2.85922,11.35694 31.70056,0.0271 z"
       id="path8942" /><path
       style="fill:#af8362;fill-opacity:1;stroke:none;stroke-width:2.26153;stroke-dasharray:none;stop-color:#000000"
       d="m 135.374,91.459557 -25.6324,-0.02798 2.27281,9.027743 28.1075,0.0277 z"
       id="path8940" /><path
       style="fill:#94013b;fill-opacity:1;stroke:none;stroke-width:2.26153;stroke-dasharray:none;stop-color:#000000"
       d="m 130.76821,82.702263 -23.23103,-0.02731 1.85004,7.348222 25.24583,0.02775 z"
       id="rect3391" /><path
       id="path1019"
       style="fill:#94013b;fill-opacity:1;stroke:#ffffff;stroke-width:5.66929;stroke-dasharray:none;stroke-opacity:1"
       d="m 564.67292,544.41697 c 0,0 -7.70005,12.53928 -12.6741,23.06989 -4.97405,10.53061 -15.7101,24.38114 -12.6741,37.60787 2.53373,11.03852 14.02262,22.58051 25.3482,22.56957 11.30102,-0.0109 22.87483,-11.54253 25.34819,-22.56957 2.98012,-13.28632 -7.92793,-26.98827 -12.6741,-37.60787 -4.74616,-10.6196 -12.67409,-23.06989 -12.67409,-23.06989 z"
       sodipodi:nodetypes="czaaasc"
       class="UnoptimicedTransforms"
       transform="matrix(0.22204092,0,0,0.22204092,-29.516896,-35.147509)" /></g></svg>
