<?xml version="1.0" encoding="UTF-8"?>
<svg width="240" height="280" version="1.1" viewBox="0 0 240 280" xml:space="preserve" xmlns="http://www.w3.org/2000/svg"><g transform="translate(40.95 49.724)"><path d="m275.91 530.22 454.38 0.53418 113.31 215.45-711.24-0.48298z" display="none" fill="#454545" fill-opacity=".55294" stop-color="#000000" stroke-width="5.6693"/><path transform="matrix(.2974 0 0 .2974 14.377 49.797)" d="m600.13 360.61-382.66 220.93-382.66-220.93v-441.86l382.66-220.93 382.66 220.93z" fill="#fff" stop-color="#000000" stroke="#454545" stroke-width="34.941"/><path d="m91.262 3.1779v2.1112a1 1 45 0 0 1 1h1.1584a1 1 45 0 1 1 1v9.903a1 1 135 0 1-1 1h-16.194a1 1 135 0 0-1 1v3.535a1 1 45 0 0 1 1h10.549a1 1 45 0 1 1 1v26.113a1 1 45 0 0 1 1h0.43681a1 1 45 0 1 1 1v15.717a1 1 45 0 0 1 1h0.26898a1 1 45 0 1 1 1v7.4567a1 1 45 0 0 1 1h2.7665a1 1 135 0 0 1-1v-7.4567a1 1 135 0 1 1-1h0.49449a1 1 135 0 0 1-1v-15.717a1 1 135 0 1 1-1h1.0284a1 1 135 0 0 1-1v-26.113a1 1 135 0 1 1-1h1.3315a1 1 135 0 0 1-1v-3.535a1 1 45 0 0-1-1h-6.3343a1 1 45 0 1-1-1v-9.903a1 1 135 0 1 1-1h1.3098a1 1 135 0 0 1-1v-2.1112a1 1 45 0 0-1-1h-8.815a1 1 135 0 0-1 1z" fill="#808080"/><g fill="#454545" stop-color="#000000" stroke-width="3.3568" aria-label="designit"><path d="m27.374 159.13q-1.4803 0-2.6349-0.47369-1.1546-0.50329-1.954-1.4211-0.79935-0.94737-1.2138-2.2204-0.41448-1.3026-0.50329-2.8717-0.02961-0.56251-0.02961-1.0066 0-0.47368 0.02961-1.0066 0.05921-1.5395 0.47369-2.8125 0.44408-1.273 1.2138-2.1908 0.79934-0.94738 1.954-1.4507 1.1842-0.5329 2.6645-0.5329 1.5395 0 2.6349 0.5329 1.0954 0.50329 1.8059 1.3322v-6.454q0-0.32566 0.20724-0.5329t0.5329-0.20724h3.0494q0.29605 0 0.50329 0.20724t0.20724 0.5329v19.54q0 0.32566-0.20724 0.5329t-0.50329 0.20724h-2.8421q-0.29605 0-0.50329-0.20724t-0.20724-0.5329v-1.0066q-0.74014 0.88816-1.8651 1.4803-1.125 0.5625-2.8125 0.5625zm1.3618-3.5526q1.0954 0 1.7467-0.50329 0.68092-0.50329 0.97698-1.273 0.32566-0.76974 0.35526-1.6579 0.05921-0.56251 0.05921-1.125t-0.05921-1.0954q-0.02961-0.82895-0.35526-1.5395-0.32566-0.74014-1.0066-1.2138-0.65132-0.47369-1.7171-0.47369-1.125 0-1.7763 0.50329-0.65132 0.47369-0.94737 1.273-0.26645 0.79934-0.32566 1.7467-0.08882 0.91777 0 1.8355 0.05921 0.94737 0.32566 1.7467 0.29605 0.79934 0.94737 1.3026 0.65132 0.47368 1.7763 0.47368z"/><path d="m46.943 159.13q-3.4046 0-5.4178-1.8948-1.9836-1.8947-2.102-5.5066 0-0.23684 0-0.62171 0-0.41448 0-0.65132 0.11842-2.2796 1.0362-3.9079 0.91777-1.6579 2.5757-2.5164 1.6579-0.88817 3.8783-0.88817 2.4869 0 4.1448 1.0362 1.6875 1.0066 2.5165 2.7829 0.85856 1.7467 0.85856 4.0263v0.68093q0 0.29605-0.23684 0.50329-0.20724 0.20724-0.50329 0.20724h-9.681q0 0.0296 0 0.11842 0 0.0592 0 0.11842 0.02961 0.94737 0.35526 1.7467 0.35526 0.76974 0.97698 1.2434 0.65132 0.47368 1.5395 0.47368 0.74014 0 1.2138-0.20723 0.47369-0.20724 0.76974-0.5033 0.32566-0.29605 0.47369-0.50329 0.26645-0.29605 0.41448-0.35526 0.17763-0.0888 0.5329-0.0888h3.079q0.29605 0 0.47369 0.17763 0.20724 0.14803 0.17763 0.44408-0.0296 0.47369-0.50329 1.1842-0.44408 0.68092-1.3322 1.3618-0.88816 0.65132-2.2204 1.0954-1.3026 0.44408-3.0198 0.44408zm-2.9309-9.4441h5.8027v-0.0592q0-1.0658-0.35526-1.8355-0.32566-0.79934-0.97698-1.2434-0.65132-0.44408-1.5691-0.44408t-1.5691 0.44408q-0.65132 0.44409-1.0066 1.2434-0.32566 0.76974-0.32566 1.8355z"/><path d="m63.462 159.13q-1.8355 0-3.1678-0.41448-1.3026-0.44408-2.1316-1.0658-0.79935-0.62171-1.2138-1.2434-0.38487-0.65132-0.41448-1.0954-0.0296-0.32566 0.20724-0.53289 0.23684-0.20724 0.47369-0.20724h2.8717q0.08882 0 0.17763 0.0296 0.08882 0.0296 0.17763 0.14803 0.38487 0.26645 0.79935 0.62171 0.41448 0.32566 0.94737 0.56251 0.5625 0.23684 1.3915 0.23684 0.97698 0 1.6579-0.38487 0.68092-0.41448 0.68092-1.1546 0-0.5329-0.32566-0.88816-0.29605-0.35527-1.1546-0.65132-0.85856-0.29606-2.5461-0.65132-1.5987-0.35527-2.7237-0.94737-1.125-0.59211-1.6875-1.4803-0.5625-0.91777-0.5625-2.1908 0-1.1546 0.71053-2.2204 0.74014-1.0658 2.1612-1.7467 1.4211-0.71053 3.5526-0.71053 1.6283 0 2.8421 0.41448 1.2434 0.38487 2.0724 1.0066 0.82895 0.59211 1.2434 1.2434 0.44408 0.62171 0.47369 1.0954 0.0296 0.29605-0.17763 0.50329-0.20724 0.20724-0.47369 0.20724h-2.6349q-0.14803 0-0.26645-0.0296-0.11842-0.0592-0.20724-0.14802-0.35526-0.23685-0.74014-0.5329-0.35526-0.32566-0.85856-0.5625-0.50329-0.23685-1.3026-0.23685-0.97698 0-1.5099 0.44408-0.50329 0.41448-0.50329 1.0658 0 0.41447 0.26645 0.76974 0.26645 0.35526 1.0954 0.65132 0.82895 0.29605 2.5165 0.62171 2.0132 0.35527 3.1974 1.0658t1.6875 1.6579q0.5329 0.91777 0.5329 1.9836 0 1.3914-0.82895 2.4868-0.82895 1.0658-2.4276 1.6875-1.5691 0.59211-3.8783 0.59211z"/><path d="m74.15 158.83q-0.29605 0-0.50329-0.20724t-0.20724-0.5329v-13.915q0-0.32566 0.20724-0.53289 0.20724-0.20724 0.50329-0.20724h2.9605q0.32566 0 0.5329 0.20724 0.20724 0.20723 0.20724 0.53289v13.915q0 0.32566-0.20724 0.5329t-0.5329 0.20724zm-0.08882-17.763q-0.29605 0-0.50329-0.20724t-0.20724-0.5329v-2.3684q0-0.32566 0.20724-0.5329 0.20724-0.23684 0.50329-0.23684h3.1086q0.32566 0 0.5329 0.23684 0.23684 0.20724 0.23684 0.5329v2.3684q0 0.32566-0.23684 0.5329-0.20724 0.20724-0.5329 0.20724z"/><path d="m88.775 165.34q-2.1908 0-3.6415-0.5921-1.4507-0.56251-2.3092-1.3915-0.82895-0.79934-1.1842-1.5987t-0.38487-1.2434q-0.02961-0.32566 0.20724-0.53289 0.23684-0.20724 0.5329-0.20724h3.1678q0.26645 0 0.44408 0.11842 0.20724 0.14803 0.32566 0.47369 0.14803 0.35526 0.41448 0.74013 0.26645 0.41448 0.79935 0.68093 0.5625 0.26644 1.4803 0.26644 1.0362 0 1.7171-0.29605t1.0066-1.0066q0.35526-0.71053 0.35526-1.9244v-1.9836q-0.71053 0.76974-1.8059 1.273-1.0658 0.50329-2.6349 0.50329-1.5395 0-2.7237-0.47369-1.1546-0.50329-1.9244-1.3914-0.76974-0.91777-1.1842-2.1908-0.41448-1.273-0.47369-2.8717-0.02961-0.79934 0-1.5691 0.05921-1.5395 0.47369-2.8125 0.41448-1.273 1.1842-2.1908 0.76974-0.94738 1.9244-1.4507 1.1842-0.5329 2.7237-0.5329 1.6283 0 2.7829 0.62172 1.1546 0.62171 1.8947 1.5395v-1.125q0-0.29605 0.20724-0.50329 0.20724-0.23684 0.50329-0.23684h2.9013q0.29605 0 0.50329 0.23684 0.23684 0.20724 0.23684 0.50329l0.02961 14.24q0 2.2204-0.85856 3.7599-0.85856 1.5395-2.5461 2.3388-1.6579 0.82895-4.1448 0.82895zm-0.14803-10.184q1.0658 0 1.7171-0.47369 0.68092-0.50329 1.0066-1.2434 0.32566-0.76974 0.35526-1.5987 0.02961-0.32566 0.02961-0.91777 0-0.62171-0.02961-0.94737-0.02961-0.82895-0.35526-1.5691-0.32566-0.76974-1.0066-1.2434-0.65132-0.47369-1.7171-0.47369-1.125 0-1.7763 0.50329-0.65132 0.47369-0.94737 1.273-0.29605 0.79934-0.35526 1.7467-0.02961 0.71053 0 1.3915 0.05921 0.97698 0.35526 1.7763 0.29605 0.79935 0.94737 1.3026 0.65132 0.47369 1.7763 0.47369z"/><path d="m100.77 158.83q-0.29606 0-0.50329-0.20724-0.20724-0.20724-0.20724-0.5329v-13.915q0-0.32566 0.20724-0.53289 0.20723-0.20724 0.50329-0.20724h2.9013q0.32566 0 0.53289 0.20724 0.20724 0.20723 0.20724 0.53289v1.1546q0.76974-0.94737 1.9836-1.5691 1.2138-0.62172 2.9605-0.62172 1.7467 0 3.0494 0.79935 1.3322 0.76974 2.0724 2.2796 0.76974 1.4803 0.76974 3.6118v8.2599q0 0.32566-0.23684 0.5329-0.20724 0.20724-0.5033 0.20724h-3.1382q-0.32566 0-0.5329-0.20724-0.20723-0.20724-0.20723-0.5329v-8.0823q0-1.5691-0.76974-2.4276-0.74014-0.88816-2.1908-0.88816-1.3915 0-2.2204 0.88816-0.82895 0.85856-0.82895 2.4276v8.0823q0 0.32566-0.20724 0.5329t-0.50329 0.20724z"/><path d="m119.51 158.83q-0.29605 0-0.50329-0.20724t-0.20724-0.5329v-13.915q0-0.32566 0.20724-0.53289 0.20724-0.20724 0.50329-0.20724h2.9605q0.32566 0 0.5329 0.20724 0.20724 0.20723 0.20724 0.53289v13.915q0 0.32566-0.20724 0.5329t-0.5329 0.20724zm-0.0888-17.763q-0.29606 0-0.5033-0.20724-0.20723-0.20724-0.20723-0.5329v-2.3684q0-0.32566 0.20723-0.5329 0.20724-0.23684 0.5033-0.23684h3.1086q0.32566 0 0.5329 0.23684 0.23684 0.20724 0.23684 0.5329v2.3684q0 0.32566-0.23684 0.5329-0.20724 0.20724-0.5329 0.20724z"/><path d="m134.31 158.83q-1.8355 0-3.1382-0.59211-1.3026-0.62172-1.9836-1.8948-0.65132-1.273-0.65132-3.1974v-6.2171h-2.3092q-0.32566 0-0.53289-0.20723-0.20724-0.20724-0.20724-0.5329v-2.0132q0-0.32566 0.20724-0.53289 0.20723-0.20724 0.53289-0.20724h2.3092v-4.8849q0-0.32566 0.20724-0.5329 0.23684-0.20724 0.5329-0.20724h2.9013q0.32566 0 0.5329 0.20724 0.20723 0.20724 0.20723 0.5329v4.8849h3.7007q0.29605 0 0.50329 0.20724 0.20724 0.20723 0.20724 0.53289v2.0132q0 0.32566-0.20724 0.5329-0.20724 0.20723-0.50329 0.20723h-3.7007v5.8619q0 1.125 0.38487 1.7763 0.41448 0.62171 1.4211 0.62171h2.1612q0.29605 0 0.50329 0.20724t0.20724 0.50329v2.1908q0 0.32566-0.20724 0.5329t-0.50329 0.20724z"/></g><g><path d="m40.197 115.73-32.384-0.0269-9.8107 14.728 36.438 0.0249z" fill="#8ca95b" stop-color="#000000"/><path d="m45.509 102.14-28.644-0.0278-7.5665 11.359 31.77 0.0271z" fill="#099aa6" stop-color="#000000"/><path d="m49.722 91.367-25.678-0.02775-6.0133 9.0273 28.162 0.028z" fill="#94013b" stop-color="#000000"/><path d="m53.145 82.611-23.269-0.02731-4.8938 7.3467 25.29 0.02798z" fill="#af8362" stop-color="#000000"/><path d="m76.22 115.76-32.359-0.0269-5.2979 14.725 36.407 0.0249z" fill="#94013b" stop-color="#000000"/><path d="m77.374 102.17-28.624-0.028-4.0864 11.358 31.746 0.0271z" fill="#af8362" stop-color="#000000"/><path d="m78.289 91.398-25.662-0.02798-3.248 9.0275 28.143 0.028z" fill="#8ca95b" stop-color="#000000"/><path d="m79.033 82.642-23.255-0.02753-2.6432 7.3473 25.275 0.02775z" fill="#099aa6" stop-color="#000000"/><path d="m112.22 115.79-32.335-0.0269-0.79224 14.723 36.376 0.0249z" fill="#af8362" stop-color="#000000"/></g><path d="m109.22 102.21-28.605-0.0278-0.61128 11.358 31.723 0.0271z" fill-opacity="0" stop-color="#000000"/><g><path d="m106.84 91.428-25.647-0.02775-0.48583 9.0275 28.125 0.028z" fill="#099aa6" stop-color="#000000"/><path d="m104.91 82.672-23.243-0.02731-0.39546 7.3478 25.26 0.02776z" fill="#8ca95b" stop-color="#000000"/><path d="m148.19 115.82-32.312-0.0269 3.7061 14.72 36.347 0.0246z" fill="#099aa6" stop-color="#000000"/><path d="m141.04 102.24-28.587-0.028 2.8592 11.357 31.701 0.0271z" fill="#8ca95b" stop-color="#000000"/><path d="m135.37 91.46-25.632-0.02798 2.2728 9.0277 28.108 0.0277z" fill="#af8362" stop-color="#000000"/><path d="m130.77 82.702-23.231-0.02731 1.85 7.3482 25.246 0.02775z" fill="#94013b" stop-color="#000000"/><path class="UnoptimicedTransforms" transform="matrix(.22204 0 0 .22204 -29.517 -35.148)" d="m564.67 544.42s-7.7 12.539-12.674 23.07-15.71 24.381-12.674 37.608c2.5337 11.039 14.023 22.581 25.348 22.57 11.301-0.0109 22.875-11.543 25.348-22.57 2.9801-13.286-7.9279-26.988-12.674-37.608-4.7462-10.62-12.674-23.07-12.674-23.07z" fill="#94013b" stroke="#fff" stroke-width="5.6693"/></g></g></svg>
